<svg width="735.1" height="77.001" viewBox="0 0 735.1 77.001" xmlns="http://www.w3.org/2000/svg"><g id="svgGroup" stroke-linecap="round" fill-rule="evenodd" font-size="9pt" stroke="#00000000" stroke-width="0.25mm" fill="#2f81f7" style="stroke:#00000000;stroke-width:0.25mm;fill:#2f81f7"><path d="M 150 40.4 L 150 76 L 135.1 76 L 135.1 44.1 A 25.141 25.141 0 0 0 134.787 39.941 Q 133.542 32.56 127.343 32.309 A 10.942 10.942 0 0 0 126.9 32.3 A 12.961 12.961 0 0 0 123.697 32.67 A 8.14 8.14 0 0 0 118.5 36.5 A 15.018 15.018 0 0 0 117.001 40.084 Q 116.031 43.491 116.001 48.289 A 49.241 49.241 0 0 0 116 48.6 L 116 76 L 101.1 76 L 101.1 44.1 A 25.141 25.141 0 0 0 100.787 39.941 Q 99.542 32.56 93.343 32.309 A 10.942 10.942 0 0 0 92.9 32.3 A 12.767 12.767 0 0 0 89.637 32.689 A 7.939 7.939 0 0 0 84.35 36.95 A 18.031 18.031 0 0 0 83.012 40.626 Q 82.065 44.335 82.004 49.572 A 62.534 62.534 0 0 0 82 50.3 L 82 76 L 67.1 76 L 67.1 21.4 L 78.5 21.4 L 80.5 28.4 L 81.3 28.4 Q 83.8 24.2 88.15 22.3 Q 92.5 20.4 97.2 20.4 Q 103.2 20.4 107.4 22.35 Q 111.6 24.3 113.8 28.4 L 115.1 28.4 Q 117.6 24.2 122.05 22.3 Q 126.5 20.4 131.2 20.4 Q 140.5 20.4 145.25 25.15 Q 148.713 28.613 149.651 35.132 A 37.072 37.072 0 0 1 150 40.4 Z M 735.1 40.4 L 735.1 76 L 720.2 76 L 720.2 44.1 A 25.141 25.141 0 0 0 719.887 39.941 Q 718.642 32.56 712.443 32.309 A 10.942 10.942 0 0 0 712 32.3 A 12.961 12.961 0 0 0 708.797 32.67 A 8.14 8.14 0 0 0 703.6 36.5 A 15.018 15.018 0 0 0 702.101 40.084 Q 701.131 43.491 701.101 48.289 A 49.241 49.241 0 0 0 701.1 48.6 L 701.1 76 L 686.2 76 L 686.2 44.1 A 25.141 25.141 0 0 0 685.887 39.941 Q 684.642 32.56 678.443 32.309 A 10.942 10.942 0 0 0 678 32.3 A 12.767 12.767 0 0 0 674.737 32.689 A 7.939 7.939 0 0 0 669.45 36.95 A 18.031 18.031 0 0 0 668.112 40.626 Q 667.165 44.335 667.104 49.572 A 62.534 62.534 0 0 0 667.1 50.3 L 667.1 76 L 652.2 76 L 652.2 21.4 L 663.6 21.4 L 665.6 28.4 L 666.4 28.4 Q 668.9 24.2 673.25 22.3 Q 677.6 20.4 682.3 20.4 Q 688.3 20.4 692.5 22.35 Q 696.7 24.3 698.9 28.4 L 700.2 28.4 Q 702.7 24.2 707.15 22.3 Q 711.6 20.4 716.3 20.4 Q 725.6 20.4 730.35 25.15 Q 733.813 28.613 734.751 35.132 A 37.072 37.072 0 0 1 735.1 40.4 Z M 269.9 0 L 269.9 15.5 A 116.767 116.767 0 0 1 269.735 21.802 A 104.207 104.207 0 0 1 269.65 23.2 Q 269.42 26.608 269.232 28.149 A 22.419 22.419 0 0 1 269.2 28.4 L 270 28.4 Q 272.6 24.2 276.7 22.3 A 20.639 20.639 0 0 1 283.656 20.491 A 24.868 24.868 0 0 1 285.8 20.4 A 27.05 27.05 0 0 1 291.857 21.041 Q 296.664 22.144 300.05 25.15 A 14.405 14.405 0 0 1 303.978 31.101 Q 305.4 34.986 305.4 40.4 L 305.4 76 L 290.5 76 L 290.5 44.1 A 23.252 23.252 0 0 0 290.144 39.83 Q 288.73 32.3 281.7 32.3 A 14.966 14.966 0 0 0 278.26 32.668 Q 275.976 33.208 274.399 34.54 A 8.412 8.412 0 0 0 272.45 36.95 A 17.148 17.148 0 0 0 270.998 40.626 Q 269.97 44.339 269.904 49.582 A 57.659 57.659 0 0 0 269.9 50.3 L 269.9 76 L 255 76 L 255 0 L 269.9 0 Z M 454 0 L 454 15.5 A 116.767 116.767 0 0 1 453.835 21.802 A 104.207 104.207 0 0 1 453.75 23.2 Q 453.52 26.608 453.332 28.149 A 22.419 22.419 0 0 1 453.3 28.4 L 454.1 28.4 Q 456.7 24.2 460.8 22.3 A 20.639 20.639 0 0 1 467.756 20.491 A 24.868 24.868 0 0 1 469.9 20.4 A 27.05 27.05 0 0 1 475.957 21.041 Q 480.764 22.144 484.15 25.15 A 14.405 14.405 0 0 1 488.078 31.101 Q 489.5 34.986 489.5 40.4 L 489.5 76 L 474.6 76 L 474.6 44.1 A 23.252 23.252 0 0 0 474.244 39.83 Q 472.83 32.3 465.8 32.3 A 14.966 14.966 0 0 0 462.36 32.668 Q 460.076 33.208 458.499 34.54 A 8.412 8.412 0 0 0 456.55 36.95 A 17.148 17.148 0 0 0 455.098 40.626 Q 454.07 44.339 454.004 49.582 A 57.659 57.659 0 0 0 454 50.3 L 454 76 L 439.1 76 L 439.1 0 L 454 0 Z M 241 60.6 L 241 73.3 A 52.107 52.107 0 0 1 233.573 75.693 A 46.567 46.567 0 0 1 231.7 76.1 A 46.908 46.908 0 0 1 226.502 76.803 A 62.974 62.974 0 0 1 221.4 77 Q 212.119 77 205.578 73.761 A 24.996 24.996 0 0 1 203.25 72.45 A 26.816 26.816 0 0 1 192.807 59.907 A 32.483 32.483 0 0 1 192.7 59.65 A 43.619 43.619 0 0 1 189.998 49.804 A 60.297 60.297 0 0 1 189.3 40.4 A 50.866 50.866 0 0 1 190.26 30.3 A 39.501 39.501 0 0 1 193.2 21.3 Q 197.1 13 204.55 8.3 A 29.612 29.612 0 0 1 214.578 4.376 A 41.446 41.446 0 0 1 222.8 3.6 Q 228.1 3.6 233.45 4.95 Q 238.8 6.3 243.7 8.6 L 238.8 20.9 Q 234.8 19 230.75 17.6 A 25.372 25.372 0 0 0 225.268 16.339 A 22.246 22.246 0 0 0 222.8 16.2 A 18.53 18.53 0 0 0 217.076 17.04 A 14.615 14.615 0 0 0 209.5 22.7 Q 204.9 29.2 204.9 40.5 A 49.381 49.381 0 0 0 205.315 47.122 Q 206.228 53.853 209.15 58.15 A 13.686 13.686 0 0 0 217.673 63.849 A 22.346 22.346 0 0 0 222.8 64.4 Q 227.2 64.4 231.55 63.4 Q 235.9 62.4 241 60.6 Z M 549.9 39.6 L 549.9 76 L 539.5 76 L 536.6 68.6 L 536.2 68.6 A 29.389 29.389 0 0 1 533.29 71.779 Q 531.116 73.813 528.8 75 Q 524.9 77 518.1 77 A 20.638 20.638 0 0 1 512.386 76.244 A 16.288 16.288 0 0 1 506 72.75 Q 501.812 69.042 501.278 61.869 A 29.24 29.24 0 0 1 501.2 59.7 Q 501.2 51 507.3 46.85 A 21.241 21.241 0 0 1 512.472 44.352 Q 517.784 42.557 525.6 42.3 L 535.1 42 L 535.1 39.6 A 12.987 12.987 0 0 0 534.904 37.264 Q 534.436 34.71 532.85 33.3 Q 530.6 31.3 526.6 31.3 Q 522.6 31.3 518.8 32.45 Q 515 33.6 511.2 35.3 L 506.3 25.2 Q 510.7 22.9 516.05 21.6 Q 521.4 20.3 527.2 20.3 Q 538.2 20.3 544.05 25.05 A 15.054 15.054 0 0 1 549.06 32.899 Q 549.9 35.887 549.9 39.6 Z M 32.5 67.4 L 32.5 76 L 0 76 L 0 67.4 L 8.7 63.4 L 8.7 17.2 L 0 13.2 L 0 4.6 L 32.5 4.6 L 32.5 13.2 L 23.8 17.2 L 23.8 63.4 L 32.5 67.4 Z M 606.1 0 L 606.1 76 L 591.2 76 L 591.2 0 L 606.1 0 Z M 370.3 48.6 Q 370.3 62.2 363.15 69.6 Q 356 77 343.7 77 Q 336.1 77 330.15 73.7 A 23.229 23.229 0 0 1 321.015 64.444 A 27.872 27.872 0 0 1 320.8 64.05 Q 317.4 57.7 317.4 48.6 A 41.694 41.694 0 0 1 318.162 40.365 Q 319.14 35.517 321.371 31.782 A 22.048 22.048 0 0 1 324.5 27.7 A 23.453 23.453 0 0 1 336.726 21.122 A 34.761 34.761 0 0 1 344 20.4 A 30.538 30.538 0 0 1 351.462 21.278 A 24.983 24.983 0 0 1 357.6 23.7 Q 363.5 27 366.9 33.25 A 26.665 26.665 0 0 1 369.528 40.574 Q 370.3 44.264 370.3 48.6 Z M 382.6 21.4 L 397.5 21.4 L 397.5 76 L 382.6 76 L 382.6 21.4 Z M 621.7 21.4 L 636.6 21.4 L 636.6 76 L 621.7 76 L 621.7 21.4 Z M 332.6 48.6 A 39.662 39.662 0 0 0 332.834 53.062 Q 333.387 57.932 335.25 60.85 A 8.634 8.634 0 0 0 341.029 64.724 A 14.08 14.08 0 0 0 343.9 65 A 13.13 13.13 0 0 0 347.261 64.598 A 8.517 8.517 0 0 0 352.45 60.85 A 14.099 14.099 0 0 0 354.012 57.357 Q 355.031 54.014 355.096 49.248 A 48.074 48.074 0 0 0 355.1 48.6 A 39.91 39.91 0 0 0 354.89 44.364 Q 354.355 39.361 352.45 36.45 A 8.587 8.587 0 0 0 346.915 32.722 A 14.151 14.151 0 0 0 343.8 32.4 A 13.466 13.466 0 0 0 340.468 32.786 A 8.514 8.514 0 0 0 335.25 36.45 Q 332.709 40.333 332.605 47.938 A 48.001 48.001 0 0 0 332.6 48.6 Z M 42.2 4.6 L 55.8 4.6 L 53.8 30.4 L 44.2 30.4 L 42.2 4.6 Z M 535.1 50.7 L 529.3 50.9 Q 523.567 51.06 520.624 52.613 A 7.164 7.164 0 0 0 519.3 53.5 A 7.794 7.794 0 0 0 516.517 59.2 A 10.396 10.396 0 0 0 516.5 59.8 Q 516.5 63.2 518.5 64.65 A 7.247 7.247 0 0 0 521.026 65.797 Q 522.237 66.1 523.7 66.1 A 13.381 13.381 0 0 0 527.87 65.474 A 11.333 11.333 0 0 0 531.8 63.25 A 9.278 9.278 0 0 0 534.867 57.797 A 13.795 13.795 0 0 0 535.1 55.2 L 535.1 50.7 Z M 392.996 0.341 A 11.802 11.802 0 0 0 390.1 0 Q 386.7 0 384.35 1.55 A 4.57 4.57 0 0 0 382.776 3.348 Q 382.359 4.176 382.166 5.257 A 11.663 11.663 0 0 0 382 7.3 A 12.293 12.293 0 0 0 382.064 8.59 Q 382.179 9.678 382.499 10.549 A 4.92 4.92 0 0 0 384.35 13 A 8.909 8.909 0 0 0 387.372 14.305 A 11.997 11.997 0 0 0 390.1 14.6 Q 393.4 14.6 395.8 13 A 4.749 4.749 0 0 0 397.328 11.334 Q 398.2 9.771 398.2 7.3 A 12.419 12.419 0 0 0 398.124 5.892 Q 398 4.806 397.673 3.945 A 4.768 4.768 0 0 0 395.8 1.55 A 9.345 9.345 0 0 0 392.996 0.341 Z M 632.096 0.341 A 11.802 11.802 0 0 0 629.2 0 Q 625.8 0 623.45 1.55 A 4.57 4.57 0 0 0 621.876 3.348 Q 621.459 4.176 621.266 5.257 A 11.663 11.663 0 0 0 621.1 7.3 A 12.293 12.293 0 0 0 621.164 8.59 Q 621.279 9.678 621.599 10.549 A 4.92 4.92 0 0 0 623.45 13 A 8.909 8.909 0 0 0 626.472 14.305 A 11.997 11.997 0 0 0 629.2 14.6 Q 632.5 14.6 634.9 13 A 4.749 4.749 0 0 0 636.428 11.334 Q 637.3 9.771 637.3 7.3 A 12.419 12.419 0 0 0 637.224 5.892 Q 637.1 4.806 636.773 3.945 A 4.768 4.768 0 0 0 634.9 1.55 A 9.345 9.345 0 0 0 632.096 0.341 Z" vector-effect="non-scaling-stroke"/></g></svg>