<svg width="1470.201" height="154.002" viewBox="0 0 1470.201 154.002" xmlns="http://www.w3.org/2000/svg"><g id="svgGroup" stroke-linecap="round" fill-rule="evenodd" font-size="9pt" stroke="#00000000" stroke-width="0.25mm" fill="#628fda" style="stroke:#00000000;stroke-width:0.25mm;fill:#628fda"><path d="M 300 80.801 L 300 152.001 L 270.2 152.001 L 270.2 88.201 Q 270.2 65.247 254.687 64.618 A 21.884 21.884 0 0 0 253.8 64.601 A 25.922 25.922 0 0 0 247.393 65.341 A 16.281 16.281 0 0 0 237 73.001 A 30.037 30.037 0 0 0 234.002 80.167 Q 232.063 86.982 232.002 96.579 A 98.483 98.483 0 0 0 232 97.201 L 232 152.001 L 202.2 152.001 L 202.2 88.201 Q 202.2 65.247 186.687 64.618 A 21.884 21.884 0 0 0 185.8 64.601 A 25.533 25.533 0 0 0 179.275 65.378 A 15.878 15.878 0 0 0 168.7 73.901 Q 164 83.201 164 100.601 L 164 152.001 L 134.2 152.001 L 134.2 42.801 L 157 42.801 L 161 56.801 L 162.6 56.801 Q 167.6 48.401 176.3 44.601 Q 185 40.801 194.4 40.801 A 61.637 61.637 0 0 1 203.556 41.444 Q 209.813 42.385 214.8 44.701 Q 223.2 48.601 227.6 56.801 L 230.2 56.801 Q 235.2 48.401 244.1 44.601 Q 253 40.801 262.4 40.801 A 58.063 58.063 0 0 1 273.136 41.728 Q 283.969 43.769 290.5 50.301 A 28.3 28.3 0 0 1 296.825 60.363 Q 300 68.66 300 80.801 Z M 1470.2 80.801 L 1470.2 152.001 L 1440.4 152.001 L 1440.4 88.201 Q 1440.4 65.247 1424.887 64.618 A 21.884 21.884 0 0 0 1424 64.601 A 25.922 25.922 0 0 0 1417.593 65.341 A 16.281 16.281 0 0 0 1407.2 73.001 A 30.037 30.037 0 0 0 1404.202 80.167 Q 1402.263 86.982 1402.202 96.579 A 98.483 98.483 0 0 0 1402.2 97.201 L 1402.2 152.001 L 1372.4 152.001 L 1372.4 88.201 Q 1372.4 65.247 1356.887 64.618 A 21.884 21.884 0 0 0 1356 64.601 A 25.533 25.533 0 0 0 1349.475 65.378 A 15.878 15.878 0 0 0 1338.9 73.901 Q 1334.2 83.201 1334.2 100.601 L 1334.2 152.001 L 1304.4 152.001 L 1304.4 42.801 L 1327.2 42.801 L 1331.2 56.801 L 1332.8 56.801 Q 1337.8 48.401 1346.5 44.601 Q 1355.2 40.801 1364.6 40.801 A 61.637 61.637 0 0 1 1373.756 41.444 Q 1380.013 42.385 1385 44.701 Q 1393.4 48.601 1397.8 56.801 L 1400.4 56.801 Q 1405.4 48.401 1414.3 44.601 Q 1423.2 40.801 1432.6 40.801 A 58.063 58.063 0 0 1 1443.336 41.728 Q 1454.169 43.769 1460.7 50.301 A 28.3 28.3 0 0 1 1467.025 60.363 Q 1470.2 68.66 1470.2 80.801 Z M 539.8 0.001 L 539.8 31.001 A 233.533 233.533 0 0 1 539.47 43.604 A 208.418 208.418 0 0 1 539.3 46.401 Q 538.8 53.801 538.4 56.801 L 540 56.801 A 33.275 33.275 0 0 1 546.745 48.851 A 29.272 29.272 0 0 1 553.4 44.601 A 41.279 41.279 0 0 1 567.311 40.982 A 49.737 49.737 0 0 1 571.6 40.801 A 54.1 54.1 0 0 1 583.715 42.081 Q 593.028 44.22 599.674 49.929 A 34.58 34.58 0 0 1 600.1 50.301 A 28.81 28.81 0 0 1 607.955 62.202 Q 609.689 66.937 610.366 72.808 A 69.842 69.842 0 0 1 610.8 80.801 L 610.8 152.001 L 581 152.001 L 581 88.201 Q 581 65.648 564.927 64.647 A 24.579 24.579 0 0 0 563.4 64.601 A 29.932 29.932 0 0 0 556.519 65.336 Q 548.566 67.216 544.9 73.901 Q 540.012 82.813 539.809 99.165 A 115.312 115.312 0 0 0 539.8 100.601 L 539.8 152.001 L 510 152.001 L 510 0.001 L 539.8 0.001 Z M 908 0.001 L 908 31.001 A 233.533 233.533 0 0 1 907.67 43.604 A 208.418 208.418 0 0 1 907.5 46.401 Q 907 53.801 906.6 56.801 L 908.2 56.801 A 33.275 33.275 0 0 1 914.945 48.851 A 29.272 29.272 0 0 1 921.6 44.601 A 41.279 41.279 0 0 1 935.511 40.982 A 49.737 49.737 0 0 1 939.8 40.801 A 54.1 54.1 0 0 1 951.915 42.081 Q 961.228 44.22 967.874 49.929 A 34.58 34.58 0 0 1 968.3 50.301 A 28.81 28.81 0 0 1 976.155 62.202 Q 977.889 66.937 978.566 72.808 A 69.842 69.842 0 0 1 979 80.801 L 979 152.001 L 949.2 152.001 L 949.2 88.201 Q 949.2 65.648 933.127 64.647 A 24.579 24.579 0 0 0 931.6 64.601 A 29.932 29.932 0 0 0 924.719 65.336 Q 916.766 67.216 913.1 73.901 Q 908.212 82.813 908.009 99.165 A 115.312 115.312 0 0 0 908 100.601 L 908 152.001 L 878.2 152.001 L 878.2 0.001 L 908 0.001 Z M 482 121.201 L 482 146.601 A 104.214 104.214 0 0 1 467.146 151.387 A 93.135 93.135 0 0 1 463.4 152.201 A 93.817 93.817 0 0 1 453.004 153.605 A 125.948 125.948 0 0 1 442.8 154.001 A 87.758 87.758 0 0 1 427.383 152.721 Q 418.424 151.121 411.157 147.522 A 49.992 49.992 0 0 1 406.5 144.901 A 53.633 53.633 0 0 1 385.614 119.814 A 64.975 64.975 0 0 1 385.4 119.301 Q 378.6 102.801 378.6 80.801 A 101.731 101.731 0 0 1 380.52 60.6 A 79.001 79.001 0 0 1 386.4 42.601 Q 394.2 26.001 409.1 16.601 A 59.224 59.224 0 0 1 429.156 8.752 A 82.892 82.892 0 0 1 445.6 7.201 Q 456.2 7.201 466.9 9.901 Q 477.6 12.601 487.4 17.201 L 477.6 41.801 Q 469.6 38.001 461.5 35.201 A 50.743 50.743 0 0 0 450.535 32.677 A 44.493 44.493 0 0 0 445.6 32.401 A 37.061 37.061 0 0 0 434.153 34.079 A 29.229 29.229 0 0 0 419 45.401 Q 409.8 58.401 409.8 81.001 A 98.763 98.763 0 0 0 410.63 94.245 Q 411.543 100.976 413.461 106.49 A 41.72 41.72 0 0 0 418.3 116.301 A 27.372 27.372 0 0 0 435.345 127.699 A 44.691 44.691 0 0 0 445.6 128.801 Q 454.4 128.801 463.1 126.801 Q 471.8 124.801 482 121.201 Z M 1099.8 79.201 L 1099.8 152.001 L 1079 152.001 L 1073.2 137.201 L 1072.4 137.201 A 58.778 58.778 0 0 1 1066.58 143.558 Q 1063.048 146.862 1059.329 149.049 A 34.142 34.142 0 0 1 1057.6 150.001 Q 1052.085 152.829 1043.671 153.657 A 76.416 76.416 0 0 1 1036.2 154.001 A 41.276 41.276 0 0 1 1024.771 152.488 A 32.575 32.575 0 0 1 1012 145.501 A 26.564 26.564 0 0 1 1004.371 133.482 Q 1002.4 127.376 1002.4 119.401 A 39.051 39.051 0 0 1 1003.682 109.074 A 26.451 26.451 0 0 1 1014.6 93.701 A 42.482 42.482 0 0 1 1024.944 88.704 Q 1035.569 85.113 1051.2 84.601 L 1070.2 84.001 L 1070.2 79.201 A 25.975 25.975 0 0 0 1069.809 74.528 Q 1069.341 71.975 1068.314 69.993 A 11.674 11.674 0 0 0 1065.7 66.601 A 14.945 14.945 0 0 0 1059.756 63.429 Q 1057.57 62.808 1054.975 62.652 A 29.71 29.71 0 0 0 1053.2 62.601 Q 1045.2 62.601 1037.6 64.901 Q 1030 67.201 1022.4 70.601 L 1012.6 50.401 A 82.113 82.113 0 0 1 1026.709 44.674 A 96.694 96.694 0 0 1 1032.1 43.201 Q 1042.8 40.601 1054.4 40.601 A 81.79 81.79 0 0 1 1067.144 41.528 Q 1073.802 42.581 1079.165 44.827 A 36.342 36.342 0 0 1 1088.1 50.101 Q 1099.107 59.038 1099.759 76.915 A 62.741 62.741 0 0 1 1099.8 79.201 Z M 65 134.801 L 65 152.001 L 0 152.001 L 0 134.801 L 17.4 126.801 L 17.4 34.401 L 0 26.401 L 0 9.201 L 65 9.201 L 65 26.401 L 47.6 34.401 L 47.6 126.801 L 65 134.801 Z M 1212.2 0.001 L 1212.2 152.001 L 1182.4 152.001 L 1182.4 0.001 L 1212.2 0.001 Z M 726.3 139.201 A 44.98 44.98 0 0 0 732.372 131.331 Q 740.6 117.833 740.6 97.201 A 94.577 94.577 0 0 0 740.573 94.919 Q 740.395 87.547 739.056 81.148 A 53.331 53.331 0 0 0 733.8 66.501 A 56.032 56.032 0 0 0 733.693 66.306 A 47.074 47.074 0 0 0 715.2 47.401 A 49.967 49.967 0 0 0 702.924 42.555 A 61.076 61.076 0 0 0 688 40.801 A 69.522 69.522 0 0 0 673.451 42.244 A 46.906 46.906 0 0 0 649 55.401 A 44.096 44.096 0 0 0 642.742 63.564 Q 634.8 76.859 634.8 97.201 A 94.877 94.877 0 0 0 634.823 99.314 Q 635.198 116.145 641.6 128.101 A 55.74 55.74 0 0 0 642.03 128.888 A 46.458 46.458 0 0 0 660.3 147.401 A 50.737 50.737 0 0 0 671.553 151.97 A 59.784 59.784 0 0 0 687.4 154.001 A 69.081 69.081 0 0 0 700.444 152.826 A 47.399 47.399 0 0 0 726.3 139.201 Z M 765.2 42.801 L 795 42.801 L 795 152.001 L 765.2 152.001 L 765.2 42.801 Z M 1243.4 42.801 L 1273.2 42.801 L 1273.2 152.001 L 1243.4 152.001 L 1243.4 42.801 Z M 665.2 97.201 Q 665.2 113.401 670.5 121.701 Q 675.8 130.001 687.8 130.001 Q 699.6 130.001 704.9 121.701 A 28.198 28.198 0 0 0 708.025 114.715 Q 710.2 107.579 710.2 97.201 A 79.821 79.821 0 0 0 709.781 88.729 Q 708.709 78.722 704.9 72.901 A 17.174 17.174 0 0 0 693.83 65.443 A 28.302 28.302 0 0 0 687.6 64.801 A 26.933 26.933 0 0 0 680.936 65.572 A 17.028 17.028 0 0 0 670.5 72.901 A 27.03 27.03 0 0 0 667.375 79.769 Q 665.34 86.368 665.209 95.877 A 96.003 96.003 0 0 0 665.2 97.201 Z M 84.4 9.201 L 111.6 9.201 L 107.6 60.801 L 88.4 60.801 L 84.4 9.201 Z M 1070.2 101.401 L 1058.6 101.801 Q 1044.2 102.201 1038.6 107.001 A 15.587 15.587 0 0 0 1033.034 118.4 A 20.792 20.792 0 0 0 1033 119.601 Q 1033 126.401 1037 129.301 A 14.493 14.493 0 0 0 1042.051 131.595 Q 1044.021 132.087 1046.321 132.179 A 26.925 26.925 0 0 0 1047.4 132.201 Q 1057 132.201 1063.6 126.501 Q 1070.2 120.801 1070.2 110.401 L 1070.2 101.401 Z M 785.992 0.682 A 23.605 23.605 0 0 0 780.2 0.001 A 25.293 25.293 0 0 0 775.395 0.436 A 18.346 18.346 0 0 0 768.7 3.101 A 9.139 9.139 0 0 0 765.552 6.697 Q 764.717 8.352 764.331 10.514 A 23.327 23.327 0 0 0 764 14.601 A 24.586 24.586 0 0 0 764.129 17.18 Q 764.359 19.357 764.999 21.098 A 9.84 9.84 0 0 0 768.7 26.001 A 17.819 17.819 0 0 0 774.744 28.61 A 23.994 23.994 0 0 0 780.2 29.201 A 24.558 24.558 0 0 0 783.579 28.975 A 18.948 18.948 0 0 0 791.6 26.001 A 9.498 9.498 0 0 0 794.657 22.668 Q 795.609 20.961 796.041 18.711 A 21.837 21.837 0 0 0 796.4 14.601 Q 796.4 10.663 795.345 7.89 A 9.536 9.536 0 0 0 791.6 3.101 A 18.689 18.689 0 0 0 785.992 0.682 Z M 1264.192 0.682 A 23.605 23.605 0 0 0 1258.4 0.001 A 25.293 25.293 0 0 0 1253.595 0.436 A 18.346 18.346 0 0 0 1246.9 3.101 A 9.139 9.139 0 0 0 1243.752 6.697 Q 1242.917 8.352 1242.531 10.514 A 23.327 23.327 0 0 0 1242.2 14.601 A 24.586 24.586 0 0 0 1242.329 17.18 Q 1242.559 19.357 1243.199 21.098 A 9.84 9.84 0 0 0 1246.9 26.001 A 17.819 17.819 0 0 0 1252.944 28.61 A 23.994 23.994 0 0 0 1258.4 29.201 A 24.558 24.558 0 0 0 1261.779 28.975 A 18.948 18.948 0 0 0 1269.8 26.001 A 9.498 9.498 0 0 0 1272.857 22.668 Q 1273.809 20.961 1274.241 18.711 A 21.837 21.837 0 0 0 1274.6 14.601 Q 1274.6 10.663 1273.545 7.89 A 9.536 9.536 0 0 0 1269.8 3.101 A 18.689 18.689 0 0 0 1264.192 0.682 Z" vector-effect="non-scaling-stroke"/></g></svg>
