<svg width="3675.502" height="385.005" viewBox="0 0 3675.502 385.005" xmlns="http://www.w3.org/2000/svg"><g id="svgGroup" stroke-linecap="round" fill-rule="evenodd" font-size="9pt" stroke="#00000000" stroke-width="0.25mm" fill="#628fda" style="stroke:#00000000;stroke-width:0.25mm;fill:#628fda"><path d="M 750 202.001 L 750 380.001 L 675.5 380.001 L 675.5 220.501 Q 675.5 161.501 634.5 161.501 A 64.804 64.804 0 0 0 618.483 163.352 A 40.701 40.701 0 0 0 592.5 182.501 A 75.092 75.092 0 0 0 585.006 200.418 Q 580.156 217.456 580.005 241.446 A 246.187 246.187 0 0 0 580 243.001 L 580 380.001 L 505.5 380.001 L 505.5 220.501 Q 505.5 161.501 464.5 161.501 Q 433.5 161.501 421.75 184.751 Q 410 208.001 410 251.501 L 410 380.001 L 335.5 380.001 L 335.5 107.001 L 392.5 107.001 L 402.5 142.001 L 406.5 142.001 Q 419 121.001 440.75 111.501 Q 462.5 102.001 486 102.001 A 154.092 154.092 0 0 1 508.89 103.61 Q 524.531 105.962 537 111.751 Q 558 121.501 569 142.001 L 575.5 142.001 Q 588 121.001 610.25 111.501 Q 632.5 102.001 656 102.001 A 145.157 145.157 0 0 1 682.841 104.321 Q 697.862 107.151 709.575 113.435 A 70.651 70.651 0 0 1 726.25 125.751 Q 743.564 143.065 748.256 175.658 A 185.361 185.361 0 0 1 750 202.001 Z M 3675.5 202.001 L 3675.5 380.001 L 3601 380.001 L 3601 220.501 Q 3601 161.501 3560 161.501 A 64.804 64.804 0 0 0 3543.983 163.352 A 40.701 40.701 0 0 0 3518 182.501 A 75.092 75.092 0 0 0 3510.506 200.418 Q 3505.656 217.456 3505.505 241.446 A 246.187 246.187 0 0 0 3505.5 243.001 L 3505.5 380.001 L 3431 380.001 L 3431 220.501 Q 3431 161.501 3390 161.501 Q 3359 161.501 3347.25 184.751 Q 3335.5 208.001 3335.5 251.501 L 3335.5 380.001 L 3261 380.001 L 3261 107.001 L 3318 107.001 L 3328 142.001 L 3332 142.001 Q 3344.5 121.001 3366.25 111.501 Q 3388 102.001 3411.5 102.001 A 154.092 154.092 0 0 1 3434.39 103.61 Q 3450.031 105.962 3462.5 111.751 Q 3483.5 121.501 3494.5 142.001 L 3501 142.001 Q 3513.5 121.001 3535.75 111.501 Q 3558 102.001 3581.5 102.001 A 145.157 145.157 0 0 1 3608.341 104.321 Q 3623.362 107.151 3635.075 113.435 A 70.651 70.651 0 0 1 3651.75 125.751 Q 3669.064 143.065 3673.756 175.658 A 185.361 185.361 0 0 1 3675.5 202.001 Z M 1349.5 0.001 L 1349.5 77.501 A 583.833 583.833 0 0 1 1348.675 109.011 A 521.043 521.043 0 0 1 1348.25 116.001 Q 1347 134.501 1346 142.001 L 1350 142.001 A 83.188 83.188 0 0 1 1366.864 122.129 A 73.179 73.179 0 0 1 1383.5 111.501 A 103.197 103.197 0 0 1 1418.278 102.456 A 124.341 124.341 0 0 1 1429 102.001 A 135.25 135.25 0 0 1 1459.287 105.203 Q 1483.322 110.722 1500.25 125.751 Q 1527 149.501 1527 202.001 L 1527 380.001 L 1452.5 380.001 L 1452.5 220.501 Q 1452.5 164.119 1412.318 161.618 A 61.448 61.448 0 0 0 1408.5 161.501 A 74.83 74.83 0 0 0 1391.298 163.34 Q 1371.414 168.04 1362.25 184.751 Q 1349.5 208.001 1349.5 251.501 L 1349.5 380.001 L 1275 380.001 L 1275 0.001 L 1349.5 0.001 Z M 2270 0.001 L 2270 77.501 A 583.833 583.833 0 0 1 2269.175 109.011 A 521.043 521.043 0 0 1 2268.75 116.001 Q 2267.5 134.501 2266.5 142.001 L 2270.5 142.001 A 83.188 83.188 0 0 1 2287.364 122.129 A 73.179 73.179 0 0 1 2304 111.501 A 103.197 103.197 0 0 1 2338.778 102.456 A 124.341 124.341 0 0 1 2349.5 102.001 A 135.25 135.25 0 0 1 2379.787 105.203 Q 2403.822 110.722 2420.75 125.751 Q 2447.5 149.501 2447.5 202.001 L 2447.5 380.001 L 2373 380.001 L 2373 220.501 Q 2373 164.119 2332.818 161.618 A 61.448 61.448 0 0 0 2329 161.501 A 74.83 74.83 0 0 0 2311.798 163.34 Q 2291.914 168.04 2282.75 184.751 Q 2270 208.001 2270 251.501 L 2270 380.001 L 2195.5 380.001 L 2195.5 0.001 L 2270 0.001 Z M 1205 303.001 L 1205 366.501 A 260.536 260.536 0 0 1 1167.864 378.467 A 232.839 232.839 0 0 1 1158.5 380.501 A 234.541 234.541 0 0 1 1132.51 384.013 A 314.87 314.87 0 0 1 1107 385.001 A 219.395 219.395 0 0 1 1068.457 381.802 Q 1038.594 376.47 1016.25 362.251 Q 980.5 339.501 963.5 298.251 A 218.095 218.095 0 0 1 949.99 249.022 A 301.484 301.484 0 0 1 946.5 202.001 A 254.328 254.328 0 0 1 951.299 151.5 A 197.504 197.504 0 0 1 966 106.501 Q 985.5 65.001 1022.75 41.501 A 148.06 148.06 0 0 1 1072.889 21.88 A 207.229 207.229 0 0 1 1114 18.001 Q 1140.5 18.001 1167.25 24.751 Q 1194 31.501 1218.5 43.001 L 1194 104.501 Q 1174 95.001 1153.75 88.001 A 126.858 126.858 0 0 0 1126.338 81.694 A 111.232 111.232 0 0 0 1114 81.001 A 92.652 92.652 0 0 0 1085.382 85.199 A 73.073 73.073 0 0 0 1047.5 113.501 A 113.901 113.901 0 0 0 1031.379 147.882 Q 1024.5 171.603 1024.5 202.501 A 246.907 246.907 0 0 0 1026.575 235.612 Q 1028.858 252.439 1033.652 266.224 A 104.301 104.301 0 0 0 1045.75 290.751 A 68.431 68.431 0 0 0 1088.363 319.247 A 111.728 111.728 0 0 0 1114 322.001 Q 1136 322.001 1157.75 317.001 Q 1179.5 312.001 1205 303.001 Z M 2749.5 198.001 L 2749.5 380.001 L 2697.5 380.001 L 2683 343.001 L 2681 343.001 Q 2665.451 362.549 2648.323 372.623 A 85.354 85.354 0 0 1 2644 375.001 A 78.015 78.015 0 0 1 2627.336 381.095 Q 2619.056 383.17 2609.177 384.143 A 191.041 191.041 0 0 1 2590.5 385.001 A 103.189 103.189 0 0 1 2561.928 381.219 A 81.438 81.438 0 0 1 2530 363.751 A 66.411 66.411 0 0 1 2510.928 333.705 Q 2507.386 322.733 2506.39 309.347 A 146.201 146.201 0 0 1 2506 298.501 A 97.627 97.627 0 0 1 2509.206 272.686 A 66.128 66.128 0 0 1 2536.5 234.251 A 106.205 106.205 0 0 1 2562.361 221.759 Q 2587.236 213.352 2623.089 211.695 A 366.279 366.279 0 0 1 2628 211.501 L 2675.5 210.001 L 2675.5 198.001 A 64.937 64.937 0 0 0 2674.521 186.32 Q 2673.352 179.936 2670.784 174.982 A 29.184 29.184 0 0 0 2664.25 166.501 Q 2653 156.501 2633 156.501 Q 2613 156.501 2594 162.251 Q 2575 168.001 2556 176.501 L 2531.5 126.001 A 205.282 205.282 0 0 1 2566.773 111.685 A 241.736 241.736 0 0 1 2580.25 108.001 Q 2607 101.501 2636 101.501 A 204.475 204.475 0 0 1 2667.86 103.821 Q 2700.141 108.923 2720.25 125.251 Q 2747.768 147.595 2749.397 192.288 A 156.852 156.852 0 0 1 2749.5 198.001 Z M 162.5 337.001 L 162.5 380.001 L 0 380.001 L 0 337.001 L 43.5 317.001 L 43.5 86.001 L 0 66.001 L 0 23.001 L 162.5 23.001 L 162.5 66.001 L 119 86.001 L 119 317.001 L 162.5 337.001 Z M 3030.5 0.001 L 3030.5 380.001 L 2956 380.001 L 2956 0.001 L 3030.5 0.001 Z M 1851.5 243.001 Q 1851.5 311.001 1815.75 348.001 Q 1780 385.001 1718.5 385.001 A 149.46 149.46 0 0 1 1678.882 379.925 A 126.842 126.842 0 0 1 1650.75 368.501 A 116.145 116.145 0 0 1 1605.075 322.221 A 139.349 139.349 0 0 1 1604 320.251 A 137.416 137.416 0 0 1 1590.735 282.636 Q 1587 264.329 1587 243.001 Q 1587 192.147 1606.855 158.91 A 110.24 110.24 0 0 1 1622.5 138.501 A 117.265 117.265 0 0 1 1683.628 105.611 A 173.805 173.805 0 0 1 1720 102.001 Q 1758.5 102.001 1788 118.501 A 117.684 117.684 0 0 1 1834.234 165.764 A 140.033 140.033 0 0 1 1834.5 166.251 A 133.326 133.326 0 0 1 1847.639 202.871 Q 1850.987 218.868 1851.432 237.299 A 236.443 236.443 0 0 1 1851.5 243.001 Z M 1913 107.001 L 1987.5 107.001 L 1987.5 380.001 L 1913 380.001 L 1913 107.001 Z M 3108.5 107.001 L 3183 107.001 L 3183 380.001 L 3108.5 380.001 L 3108.5 107.001 Z M 1663 243.001 A 198.309 198.309 0 0 0 1664.168 265.308 Q 1666.788 288.377 1675.286 302.685 A 56.846 56.846 0 0 0 1676.25 304.251 A 43.169 43.169 0 0 0 1705.145 323.622 A 70.399 70.399 0 0 0 1719.5 325.001 A 65.648 65.648 0 0 0 1736.303 322.988 A 42.586 42.586 0 0 0 1762.25 304.251 A 70.496 70.496 0 0 0 1770.062 286.787 Q 1775.5 268.947 1775.5 243.001 A 199.552 199.552 0 0 0 1774.452 221.822 Q 1771.773 196.806 1762.25 182.251 A 42.935 42.935 0 0 0 1734.575 163.609 A 70.756 70.756 0 0 0 1719 162.001 Q 1689.5 162.001 1676.25 182.251 Q 1663 202.501 1663 243.001 Z M 211 23.001 L 279 23.001 L 269 152.001 L 221 152.001 L 211 23.001 Z M 2675.5 253.501 L 2646.5 254.501 Q 2617.837 255.298 2603.12 263.067 A 35.819 35.819 0 0 0 2596.5 267.501 A 38.968 38.968 0 0 0 2582.585 296 A 51.981 51.981 0 0 0 2582.5 299.001 A 45.496 45.496 0 0 0 2583.291 307.793 Q 2584.294 312.876 2586.568 316.721 A 21.485 21.485 0 0 0 2592.5 323.251 A 36.233 36.233 0 0 0 2605.128 328.987 Q 2610.051 330.217 2615.802 330.448 A 67.313 67.313 0 0 0 2618.5 330.501 A 66.904 66.904 0 0 0 2639.352 327.37 A 56.666 56.666 0 0 0 2659 316.251 A 46.391 46.391 0 0 0 2674.336 288.985 A 68.977 68.977 0 0 0 2675.5 276.001 L 2675.5 253.501 Z M 1964.98 1.704 A 59.012 59.012 0 0 0 1950.5 0.001 A 63.233 63.233 0 0 0 1938.488 1.091 A 45.864 45.864 0 0 0 1921.75 7.751 Q 1913.12 13.444 1910.828 26.284 A 58.317 58.317 0 0 0 1910 36.501 Q 1910 57.001 1921.75 65.001 A 44.547 44.547 0 0 0 1936.86 71.524 A 59.985 59.985 0 0 0 1950.5 73.001 A 61.396 61.396 0 0 0 1958.948 72.437 A 47.37 47.37 0 0 0 1979 65.001 Q 1991 57.001 1991 36.501 A 62.093 62.093 0 0 0 1990.621 29.46 Q 1990.001 24.031 1988.363 19.725 A 23.841 23.841 0 0 0 1979 7.751 A 46.724 46.724 0 0 0 1964.98 1.704 Z M 3160.48 1.704 A 59.012 59.012 0 0 0 3146 0.001 A 63.233 63.233 0 0 0 3133.988 1.091 A 45.864 45.864 0 0 0 3117.25 7.751 Q 3108.62 13.444 3106.328 26.284 A 58.317 58.317 0 0 0 3105.5 36.501 Q 3105.5 57.001 3117.25 65.001 A 44.547 44.547 0 0 0 3132.36 71.524 A 59.985 59.985 0 0 0 3146 73.001 A 61.396 61.396 0 0 0 3154.448 72.437 A 47.37 47.37 0 0 0 3174.5 65.001 Q 3186.5 57.001 3186.5 36.501 A 62.093 62.093 0 0 0 3186.121 29.46 Q 3185.501 24.031 3183.863 19.725 A 23.841 23.841 0 0 0 3174.5 7.751 A 46.724 46.724 0 0 0 3160.48 1.704 Z" vector-effect="non-scaling-stroke"/></g></svg>
